<?xml version="1.0" encoding="utf-8"?>
<svg xmlns="http://www.w3.org/2000/svg" viewBox="0 0 500 500">
  <path d="M 139.493 405.153 C 123.042 409.797 111.963 400.112 110.796 387.579 L 94.21 253.351 C 91.532 233.21 100.418 223.136 117.928 219.37 L 317.725 171.115 C 333.622 167.215 346.313 170.982 353.942 190.527 L 401.019 318.321 C 406.737 333.522 395.485 344.058 384.706 346.133 L 139.493 405.153 Z" stroke="none" fill="#000000" stroke-width="0.5" fill-rule="evenodd" marker-start="none" marker-end="none" stroke-miterlimit="79.8403193612775"/>
  <path d="M 150.525 414.608 L 196.028 403.703 L 190.093 428.891 L 167.366 434.296 L 150.525 414.608 Z" stroke="none" fill="#000000" stroke-linejoin="miter" stroke-width="0.188" marker-start="none" marker-end="none" stroke-miterlimit="79.8403193612775"/>
  <path d="M 165.115 419.783 L 169.975 425.42 C 170.128 425.598 170.353 425.839 170.581 425.782 L 183.487 422.557 C 183.715 422.5 183.792 422.179 183.849 421.951 L 185.799 414.174 C 185.849 413.975 185.574 413.786 185.308 413.853 L 165.292 418.964 C 165.026 419.031 164.712 419.35 165.115 419.783 Z" fill="#742a85" stroke="none" stroke-width="0.188" stroke-linejoin="miter" marker-start="none" marker-end="none" stroke-miterlimit="79.8403193612775"/>
  <path d="M 332.29 370.928 L 377.793 360.023 L 371.858 385.211 L 349.131 390.616 L 332.29 370.928 Z" stroke-linejoin="miter" stroke="none" stroke-width="0.188" fill="#000000" marker-start="none" marker-end="none" stroke-miterlimit="79.8403193612775"/>
  <path d="M 346.88 376.103 L 351.74 381.74 C 351.893 381.918 352.118 382.159 352.346 382.102 L 365.252 378.877 C 365.48 378.82 365.557 378.499 365.614 378.271 L 367.564 370.494 C 367.614 370.295 367.339 370.106 367.073 370.173 L 347.057 375.284 C 346.791 375.351 346.477 375.67 346.88 376.103 Z" fill="#742a85" stroke-linejoin="miter" stroke="none" stroke-width="0.188" marker-start="none" marker-end="none" stroke-miterlimit="79.8403193612775"/>
  <path d="M 121.318 208.792 L 105.343 142.49 C 95.266 142.359 88.665 138.669 86.238 128.593 C 82.045 111.194 110.317 82.795 159.038 71.057 C 206.235 59.684 243.141 70.972 249.235 87.51 L 249.723 89.11 L 249.733 89.154 L 250.103 90.972 C 250.417 92.848 250.171 94.585 250.027 96.2 C 202.76 98.549 166.239 114.897 144.282 138.375 C 136.893 146.276 131.579 156.147 131.456 165.659 C 131.274 179.824 140.699 192.84 157.543 195.441 L 158.541 199.869 L 121.318 208.792 Z" stroke-linejoin="miter" stroke="none" fill="#000000" stroke-width="0.375" fill-rule="evenodd" marker-start="none" marker-end="none" stroke-miterlimit="79.8403193612775"/>
  <path d="M 166.328 198.323 L 162.858 183.925 C 152.781 183.794 145.96 180.104 143.533 170.028 C 139.34 152.629 167.612 124.23 216.333 112.492 C 263.53 101.119 300.763 112.407 306.857 128.945 L 307.345 130.545 L 307.355 130.589 L 307.725 132.407 C 309.235 141.417 305.031 147.217 296.668 151.631 L 300.116 166.049 L 166.328 198.323 Z" stroke-linejoin="miter" stroke="none" fill="#000000" stroke-width="0.185" fill-rule="evenodd" marker-start="none" marker-end="none" stroke-miterlimit="79.8403193612775"/>
  <path d="M 104.934 134.789 C 95.384 134.654 91.316 128.753 94.241 120.625 C 96.044 115.616 100.834 109.954 107.651 103.699 C 126.13 86.745 158.315 77.504 183.859 74.678 C 216.377 71.081 237.653 81.527 241.348 89.245 C 196.959 94.106 159.005 108.999 137.881 133.682 C 128.09 134.821 118.248 135.443 108.389 135.894 C 107.296 135.221 106.116 134.806 104.934 134.789 Z" fill="#e51e24" stroke-linejoin="miter" stroke-width="0.375" stroke="none" marker-start="none" marker-end="none" stroke-miterlimit="79.8403193612775"/>
  <path d="M 171.031 186.915 L 170.357 183.421 C 169.643 179.721 165.953 176.628 161.642 176.216 C 156.366 175.711 152.983 173.277 151.556 169.56 C 147.115 157.996 172.722 131.464 215.436 120.692 C 255.489 111.246 284.229 115.853 296.746 127.705 C 298.579 129.441 300.451 132.302 299.765 136.831 C 298.581 144.654 286.934 143.761 289.259 154.497 L 290.689 160.71 L 206.934 180.837 L 206.038 181.052 C 194.374 183.32 182.711 185.395 171.05 187.012 L 171.031 186.915 Z" fill="#f6871f" stroke-linejoin="miter" stroke-width="0.163" stroke="none" marker-start="none" marker-end="none" stroke-miterlimit="79.8403193612775"/>
  <path d="M 126.271 193.848 L 113.411 142.506 C 112.731 140.051 111.067 137.357 108.704 135.89 C 118.497 135.325 127.874 134.542 137.531 133.84 C 135.461 136.286 133.621 139.003 131.89 141.638 C 119.183 160.983 123.228 181.419 135.039 192.958 C 132.141 193.255 129.217 193.551 126.271 193.848 Z" stroke="#f6871f" fill="#f6871f" stroke-linejoin="miter" stroke-width="0.375" marker-start="none" marker-end="none" stroke-miterlimit="79.8403193612775"/>
  <path d="M 127.869 200.226 L 126.107 193.959 C 129.208 193.707 132.648 193.399 135.353 193.014 C 136.911 194.529 138.347 195.889 140.153 197.072 L 127.869 200.226 Z" fill="#fcd009" stroke-linejoin="miter" stroke-width="0.375" stroke="none" marker-start="none" marker-end="none" stroke-miterlimit="79.8403193612775"/>
  <path d="M 119.347 390.872 L 119.365 390.904 L 118.929 389.365 L 118.624 387.598 L 116.416 369.926 L 247.584 324.169 L 391.345 314.66 L 394.313 322.701 C 397.033 329.998 390.624 336.761 384.676 338.199 L 137.601 398.092 C 129.012 400.51 121.588 397.436 119.347 390.872 Z" fill="#742a85" stroke="none" stroke-width="0.5" marker-start="none" marker-end="none" stroke-miterlimit="79.8403193612775"/>
  <path d="M 116.575 371.199 L 108.972 310.346 L 218.454 290.184 L 333.83 273.049 L 378.769 280.547 L 394.313 322.701 C 397.033 329.998 390.624 336.761 384.676 338.199 L 376.537 340.172 L 376.672 340.14 C 354.459 337.086 323.126 336.688 296.704 339.305 C 259.223 343.018 220.707 351.938 176.919 360.868 C 156.657 365 135.661 369.582 116.586 371.293 L 116.575 371.199 Z" fill="#3d5fac" stroke-linejoin="miter" stroke-width="0.5" stroke="none" marker-start="none" marker-end="none" stroke-miterlimit="79.8403193612775"/>
  <path d="M 371.8 205.786 L 384.072 238.512 C 388.72 237.422 393.493 236.675 397.919 234.96 C 402.547 233.166 405.271 227.473 404.418 222.688 C 403.516 217.629 402.732 213.935 400.914 208.876 C 399.786 204.576 393.043 200.683 388.378 201.803 L 371.8 205.786 Z" stroke-linejoin="miter" stroke="none" fill="#000000" stroke-width="0.188" marker-start="none" marker-end="none" stroke-miterlimit="79.8403193612775"/>
  <path d="M 388.301 228.68 L 385.17 220 C 389.028 219.815 392.837 220.582 396.619 221.817 L 396.763 222.374 C 397.45 224.705 396.415 227.311 394.518 227.853 L 389.466 229.296 C 389.044 229.416 388.45 229.093 388.301 228.68 Z" stroke-linejoin="miter" stroke="none" stroke-width="0.5" fill="#008043" marker-start="none" marker-end="none" stroke-miterlimit="79.8403193612775"/>
  <path d="M 385.184 220.038 L 385.187 220.046 L 382.273 211.964 C 382.159 211.648 382.429 211.168 382.752 211.074 L 388.49 209.4 C 390.432 208.834 393.551 209.869 394.054 211.828 L 396.668 222.006 L 396.666 221.997 C 392.995 221.109 389.142 220.495 385.184 220.038 Z" fill="#fcd009" stroke-linejoin="miter" stroke="none" stroke-width="0.5" marker-start="none" marker-end="none" stroke-miterlimit="79.8403193612775"/>
  <path d="M 109.292 312.906 L 101.923 253.927 C 117.694 254.885 135.892 247.14 151.974 244.347 C 191.803 237.428 230.51 229.949 271.461 221.16 C 299.047 215.24 327.398 218.16 355.617 217.801 L 378.837 280.769 L 378.768 280.582 C 346.956 277.33 314.594 276.969 281.184 282.13 C 244.838 288.29 208.063 295.894 171.608 303.634 C 150.369 308.144 129.387 311.211 109.297 312.945 L 109.292 312.906 Z" fill="#0f8041" stroke-linejoin="miter" stroke-width="0.5" stroke="none" marker-start="none" marker-end="none" stroke-miterlimit="79.8403193612775"/>
  <path d="M 101.937 254.036 L 101.929 253.975 L 101.217 248.268 C 99.89 238.981 107.879 229.293 116.244 227.285 L 322.664 177.725 C 331.763 175.527 342.018 180.998 345.202 189.627 L 355.773 218.272 L 355.732 218.161 C 328.582 217.503 300.46 221.007 273.368 225.792 C 234.963 232.576 197.412 242.237 159.022 248.075 C 140.379 250.91 117.054 254.314 101.937 254.036 Z" fill="#fcd009" stroke="none" stroke-linejoin="miter" stroke-width="0.5" marker-start="none" marker-end="none" stroke-miterlimit="79.8403193612775"/>
</svg>